<?xml version="1.0" standalone="no"?>
<!DOCTYPE svg PUBLIC "-//W3C//DTD SVG 20010904//EN"
 "http://www.w3.org/TR/2001/REC-SVG-20010904/DTD/svg10.dtd">
<svg version="1.0" xmlns="http://www.w3.org/2000/svg"
 width="512.000000pt" height="512.000000pt" viewBox="0 0 512.000000 512.000000"
 preserveAspectRatio="xMidYMid meet">
<metadata>
Created by potrace 1.11, written by Peter Selinger 2001-2013
</metadata>
<g transform="translate(0.000000,512.000000) scale(0.100000,-0.100000)"
fill="#000000" stroke="none">
<path d="M390 5104 c-30 -8 -80 -26 -110 -41 -72 -35 -188 -151 -223 -223 -61
-126 -57 23 -57 -2280 0 -2303 -4 -2154 57 -2280 35 -72 151 -188 223 -223
126 -61 -23 -57 2280 -57 2303 0 2154 -4 2280 57 72 35 188 151 223 223 61
126 57 -23 57 2280 0 2303 4 2154 -57 2280 -35 72 -151 188 -223 223 -127 61
23 57 -2285 56 -1816 0 -2118 -2 -2165 -15z m2250 -880 c419 -54 728 -232 861
-496 58 -114 74 -196 74 -378 0 -181 -14 -268 -62 -388 -48 -121 -103 -202
-213 -313 -113 -115 -211 -185 -334 -239 -88 -39 -85 -27 -37 -157 17 -46 57
-184 91 -307 91 -342 138 -457 203 -497 41 -25 90 -24 143 2 60 28 236 183
384 335 186 191 214 210 254 165 27 -30 42 -149 29 -227 -43 -252 -317 -556
-638 -710 -264 -126 -510 -124 -659 7 -122 108 -165 248 -231 759 -20 151 -47
330 -60 397 -14 67 -25 124 -25 127 0 2 -21 9 -46 15 -236 60 -330 305 -150
390 105 49 227 55 343 16 l76 -26 54 53 c146 143 212 309 213 535 0 166 -35
268 -126 364 -101 105 -212 151 -409 169 -116 11 -315 2 -455 -21 -111 -17
-267 -76 -471 -175 -161 -78 -207 -97 -256 -101 -37 -3 -68 -1 -81 6 -86 46
97 295 330 448 354 233 720 308 1198 247z m-561 -683 c62 -62 25 -436 -85
-863 -30 -117 -78 -307 -106 -423 l-51 -210 -7 -425 c-6 -448 -7 -453 -56
-531 -40 -65 -119 -115 -284 -184 -89 -36 -192 -44 -240 -17 -143 79 -157 515
-34 1052 69 297 177 646 284 915 178 447 326 654 497 694 56 13 61 13 82 -8z"/>
</g>
</svg>
